<?xml version="1.0" encoding="UTF-8"?>
<svg id="Calque_1" data-name="Calque 1" xmlns="http://www.w3.org/2000/svg" viewBox="0 0 502.78 254">
  <defs>
    <style>
      .cls-1 {
        fill: #fff;
      }
    </style>
  </defs>
  <path class="cls-1" d="M23.33,112.64c3.11-26.61,25.72-46.69,52.53-46.68,50.68,0,101.36.1,152.04-.09,7.7-.03,14.9,6.75,14.71,14.51-.2,8.2-6.36,14.44-14.79,14.44-47.69.01-95.39,0-143.08.03-4.47,0-8.95-.37-13.4.39-11.22,1.91-19.39,11.94-19.34,23.82.04,11.16,8.63,21.25,19.51,22.99,1.71.27,3.42.4,5.15.4,43.85-.01,87.69,0,131.53,0,2.94,0,5.01-1.45,5.46-3.8.41-2.17-.9-4.4-3.01-5.3-1-.42-2.01-.28-3.02-.28-43.68-.01-87.37,0-131.06-.01-9.53,0-15.92-6.94-15.11-16.38.53-6.16,6.42-11.99,12.57-12.41,1.33-.09,2.67-.13,4-.13,43.21,0,86.43.07,129.64-.06,10.74-.03,19.52,3.81,26.76,11.56.76.95,1.52,1.9,2.28,2.85,7.1,11.23,8.35,23.05,2.05,34.81-6.19,11.55-16.12,17.99-29.58,18-44.55.04-89.1.05-133.65,0-31.15-.03-55.8-27.77-52.2-58.64v-.02Z"/>
  <path class="cls-1" d="M361.44,130.4c3.72,2.5,7.82,3.26,12.13,2.29,6.68-1.49,11.17-7.82,10.92-15.08-.22-6.56-5.53-12.26-12.41-13.33-6.54-1.02-13.26,2.9-15.53,9.19-2.24,6.19-.59,11.52,3.9,16.12l.99.81h0Z"/>
  <path class="cls-1" d="M437.42,65.91c-45.03-.08-90.05-.02-135.07-.04-4.44,0-8.74.81-12.92,2.21-7.79,2.61-14.16,7.31-19.56,13.41-.6.8-1.21,1.6-1.82,2.4-4.78,7.3-7.72,15.2-7.74,24.03-.02,6.99-.12,13.98.02,20.97.44,23.51,19.15,42.32,42.03,42.32,44.95.01,89.89,0,134.84-.01,23.42,0,42.5-19.05,42.59-42.51.02-6.76.02-13.51,0-20.27-.07-23.3-19.07-42.47-42.37-42.51h0ZM436.31,142.34c-22.15.03-44.31.01-66.46.01h-65.51c-9.26,0-15.02-5.6-15.14-14.86-.08-6.36-.1-12.72.06-19.08.19-7.8,6.37-13.66,14.18-13.66,44.14-.01,88.29-.01,132.44,0,9.09,0,15.02,5.92,15.04,15,.01,5.97.01,11.94.01,17.9-.01,8.61-6.01,14.68-14.62,14.69h0Z"/>
  <path class="cls-1" d="M437.86,187.93c9.35,0,18.69.02,28.04-.02,2.93-.01,5.79.31,8.59,1.15,3.63,1.08,5.58,4.15,4.67,7.28-.93,3.17-4.06,4.6-7.78,3.53-2.13-.61-4.31-.84-6.51-.84-18.3-.01-36.6-.02-54.9.02-1.49,0-3.8-.67-3.75,1.89.05,2.42,2.27,1.65,3.67,1.65,18.69.04,37.39.03,56.08.01,5.49,0,9.53,2.49,11.95,7.3,2.35,4.67,1.84,9.32-1.33,13.5-2.56,3.39-6.05,5.14-10.34,5.14-19.48,0-38.96-.01-58.44,0-3.01,0-5.95-.44-8.77-1.42-3.35-1.17-5-4.18-4.07-7.18.92-3.01,3.97-4.54,7.43-3.52,2.22.66,4.43.88,6.72.88,18.46-.02,36.92-.01,55.38-.01.71,0,1.42.05,2.11-.07,1-.17,1.48-.86,1.39-1.86-.09-.91-.64-1.4-1.56-1.43-.71-.02-1.41-.02-2.12-.02-18.54,0-37.07.02-55.61,0-10.01,0-16.47-9.01-12.93-17.97,1.88-4.77,6.55-7.96,11.94-7.99,10.05-.05,20.11-.01,30.16-.02h-.02Z"/>
  <path class="cls-1" d="M170.2,187.93c9.98,0,19.96-.01,29.94,0,2.8,0,4.65,1.24,5.44,3.64.74,2.28.32,4.34-1.44,6.04-1.28,1.23-2.87,1.42-4.58,1.42-18.23-.02-36.46-.02-54.69,0-1.49,0-2.99.02-4.46.23-4.94.71-8.05,4.75-7.69,9.87.32,4.49,4.16,8.12,8.81,8.14,14.77.04,29.54.04,44.32,0,4.45-.01,8.05-3.25,8.74-7.69.11-.7.19-1.4.29-2.1.45-3.14,2.7-5.01,5.84-4.84,2.87.15,5.04,2.41,5.18,5.39.48,10.57-8.72,20.4-19.42,20.47-15.16.1-30.33.12-45.49,0-10.62-.08-19.42-9.21-19.54-19.94-.12-11.01,8.28-20.26,19.07-20.53,9.89-.24,19.8-.05,29.7-.05v-.04h-.02Z"/>
  <path class="cls-1" d="M285.91,219.19c-3.86,3.33-7.68,5.69-12,7.25-3.8,1.37-7.71,2.08-11.74,2.09-9.81.01-19.63.01-29.44,0-11.01-.02-20.04-8.94-20.21-20.01-.07-4.87-.04-9.73,0-14.6.03-3.66,2.36-6.03,5.79-5.98,3.33.05,5.4,2.31,5.42,6.04.03,4.63-.02,9.26.01,13.89.04,5.65,3.79,9.38,9.48,9.4,9.11.03,18.23-.33,27.32.1,12.64.59,25.08-9.09,25.37-24,.05-2.6,1.67-4.65,3.91-5.26,2.52-.69,5.04.25,6.37,2.38.69,1.11.84,2.36.84,3.62.01,9.5.04,19-.02,28.5-.02,3.59-2.36,5.96-5.6,5.93-3.34-.02-5.5-2.46-5.52-6.22v-3.12h.02Z"/>
  <path class="cls-1" d="M314.8,197.19c3.79-3.33,7.62-5.68,11.93-7.24,3.5-1.27,7.08-2.01,10.81-2.01,10.29,0,20.58-.1,30.86.02,10.53.12,19.28,8.75,19.77,19.26.17,3.71-2.07,6.45-5.46,6.67-3.13.21-5.56-2.34-5.77-6.06-.26-4.6-3.5-8.05-8.1-8.62-3.29-.41-6.59-.16-9.88-.18-6.28-.05-12.57.1-18.85-.03-15.38-.32-25.35,11.59-25.35,24.05,0,2.72-1.85,4.82-4.39,5.39-2.34.53-4.93-.73-6.13-2.93-.51-.93-.63-1.92-.63-2.95,0-9.5-.03-19,0-28.5.01-3.84,2.16-6.13,5.59-6.13s5.53,2.3,5.58,6.13v3.13h.02Z"/>
  <path class="cls-1" d="M68.76,228.52h-25.92c-7.16-.01-14.21-6.14-12.73-15.96.41-2.72,2.8-4.42,5.61-4.35,2.87.07,5.08,2.02,5.47,4.85.06.46.09.95.03,1.41-.24,2.19.77,2.84,2.88,2.83,15-.06,30.01-.03,45.01-.03,1.65,0,3.3.01,4.95,0,4.78-.04,8.38-3.14,9.09-7.83.08-.54.17-1.09.24-1.63.43-3.49,2.65-5.4,6-5.17,3.02.21,5.1,2.65,5.08,5.96-.06,9.51-7.13,17.85-16.52,19.58-3.13.58-6.26.31-9.39.33-6.6.06-13.2.02-19.79.02h0Z"/>
  <path class="cls-1" d="M213.9,47.29c0,1.06-.03,1.74-1.45,1.71-1.47-.04-1.38-.86-1.38-1.85.01-5.33,0-10.67-.37-16.05-1.01,5.16-2,10.32-3.05,15.47-.21,1.03.1,2.37-1.78,2.43-1.85.07-1.74-1.2-1.96-2.26-1.14-5.34-2.23-10.69-3.74-16.02,0,5.48.02,10.97-.03,16.45,0,.58.55,1.57-.57,1.73-.87.13-1.9.41-1.89-1.21.05-7.78.03-15.55-.01-23.32,0-1.19.66-1.28,1.5-1.17,1.1.14,2.53-.66,2.89,1.4.83,4.63,1.85,9.21,2.8,13.82.17.84.35,1.68.52,2.53.03.04.06.07.09.11.17.33-.13,1.05.7.79,1.13-5.76,2.31-11.52,3.39-17.29.41-2.16,2-1.19,3.15-1.36,1.46-.21,1.16.9,1.16,1.7.01,7.46,0,14.92.02,22.38h.01Z"/>
  <path class="cls-1" d="M175.34,36.51c3.43-2.19,2.73-5.61,2.51-8.72-.22-2.96-1.98-4.4-5-4.59-1.56-.1-3.14.05-4.7-.04-1.32-.07-1.78.38-1.77,1.74.05,7.45.04,14.89.01,22.34,0,1.05.02,1.78,1.44,1.76,1.3,0,1.58-.51,1.55-1.67-.06-2.59-.03-5.18.01-7.76.01-.55-.34-1.23.58-1.55,2.23-.78,4.68.53,4.96,2.88.2,1.7.11,3.44.14,5.16.03,1.99,1.17,2.9,3.41,2.74-1.64-4.06,1.51-9.12-3.14-12.29h0ZM175.03,31.76c-.17,2.76-2.13,4.11-4.85,3.58-.8-.16-.8-.58-.81-1.14-.01-1.25,0-2.51,0-3.76,0-.63-.14-1.3.03-1.88.28-.92-1.02-2.49,1.12-2.69,2.64-.25,4.01.4,4.34,2.38.19,1.15.24,2.35.17,3.51Z"/>
  <path class="cls-1" d="M358.1,40.15v-15.19c0-.93-.22-1.85,1.33-1.8,1.41.05,1.2.86,1.2,1.72,0,7.45,0,14.9-.03,22.35,0,.69.43,1.69-.9,1.71-1.09.02-2.08.19-2.54-1.33-1.65-5.54-3.44-11.05-5.19-16.56-.14-.44-.33-.86-.87-1.28v9.35c0,2.82-.03,5.65.02,8.47.02.97-.21,1.39-1.3,1.39s-1.26-.54-1.26-1.45c.02-7.53,0-15.06.03-22.59,0-.66-.47-1.82.87-1.72,1.16.08,2.65-.77,3.25,1.27,1.37,4.65,2.93,9.24,4.42,13.86.2.63.41,1.25.61,1.87.12-.03.24-.05.36-.08h0Z"/>
  <path class="cls-1" d="M146.68,28.22c-.17-3.76-2.57-5.44-6.62-5.23-3.13.17-4.95,2.28-5,5.89-.04,2.35-.01,4.7-.01,7.05-.01,2.5-.05,5.01.01,7.52.07,3.52,1.97,5.57,5.19,5.7,3.9.16,6.25-1.51,6.42-5.19.24-5.24.24-10.5.01-15.74h0ZM143.65,36.16h-.02c0,2.59.04,5.16-.02,7.74-.04,1.66-1.01,2.62-2.66,2.68-1.81.06-2.9-1.05-2.94-2.71-.11-5.17-.1-10.34,0-15.51.04-1.68,1.1-2.82,2.87-2.79,1.74.03,2.75,1.07,2.77,2.85.04,2.58.01,5.16.01,7.74h-.01Z"/>
  <path class="cls-1" d="M329.31,30.59c.03-1.91-.22-3.73-1-5.47-.5-.51-1-1.01-1.5-1.52-5.28-1.85-9.11.16-9.23,4.97-.12,5.02-.08,10.04-.01,15.06.05,2.88,1.6,4.84,3.99,5.39,4.51,1.05,7.63-1.32,7.71-5.96.06-4.15-.04-8.31.04-12.47h0ZM326.17,43.83c-.12,1.77-1.08,2.78-2.85,2.75-1.81-.03-2.73-1.27-2.82-2.88-.15-2.58-.05-5.17-.05-7.76h-.01c0-2.35-.02-4.7.01-7.05.02-1.91.94-3.25,2.89-3.33,1.87-.07,2.8,1.2,2.88,3.02.23,5.08.3,10.17-.05,15.25h0Z"/>
  <path class="cls-1" d="M246.9,47.1c-1.41-7.15-2.87-14.29-4.21-21.45-.28-1.5-.34-2.56-2.43-2.56-1.97,0-2.5.77-2.8,2.44-1.32,7.25-2.72,14.48-4.07,21.72-.13.68-.82,1.63.64,1.69.91.03,2,.28,2.01-1.23,0-.3.16-.61.16-.92-.01-2.67,1.42-3.49,3.87-3.04.22.05.47.05.71,0,2.02-.36,2.89.48,2.82,2.52-.06,2.18,1.07,3.09,3.22,2.71.03-.05.06-.1.09-.15.31-.56.24-1.14-.01-1.73h0ZM240.75,41.33c-3.51-.09-3.54,0-2.91-3.41.62-3.43,1.3-6.85,2.09-10.94.91,4.53,1.61,8.37,2.47,12.16.36,1.57.22,2.24-1.65,2.19Z"/>
  <path class="cls-1" d="M391.67,42.79c-.03,4.58-1.9,6.49-6.06,6.38-3.79-.1-5.7-2.43-5.5-6.59.04-.83.13-1.36,1.14-1.24.74.09,1.69-.24,1.55,1.08-.02.15-.01.32,0,.47.22,1.49.41,3.04,2.12,3.59,1.12.36,2.24.13,3.01-.79,1.17-1.41,1.09-3.07.46-4.66-.86-2.14-2.77-3.35-4.47-4.72-2.69-2.18-4.09-4.85-3.68-8.39.42-3.58,2.77-5.31,6.85-4.91,2.9.28,4.84,2.89,4.58,6.04-.06.75-.2,1.21-1.07,1.08-.64-.09-1.5.28-1.67-.79-.1-.62-.11-1.26-.27-1.86-.35-1.32-1.36-1.91-2.62-1.94-1.16-.03-2.14.46-2.61,1.64-.83,2.12-.38,4.04,1.15,5.63,1.13,1.18,2.46,2.18,3.69,3.27,2.05,1.83,3.69,3.87,3.38,6.69l.02.02Z"/>
  <path class="cls-1" d="M105.89,36.06c0-3.69.07-7.38-.03-11.06-.04-1.46.43-1.91,1.86-1.84,2.35.1,4.71.04,7.06,0,.9,0,1.45.14,1.46,1.27,0,1.14-.38,1.52-1.5,1.46-1.57-.08-3.14.02-4.71-.04-1.01-.04-1.42.3-1.33,1.35.09,1.01,0,2.04.03,3.06.03,1.56-.49,3.52.27,4.57.84,1.17,2.92.32,4.45.39.96.04,1.39.22,1.38,1.31,0,1.06-.4,1.27-1.37,1.36-1.56.14-3.66-.89-4.55.59-.69,1.16-.17,3.05-.18,4.62,0,1.41-.01,2.82,0,4.24.01.9.08,1.66-1.28,1.63-1.25-.02-1.61-.4-1.59-1.63.07-3.76.03-7.53.03-11.3h0Z"/>
  <path class="cls-1" d="M269.92,23.19c1.57,0,3.14.06,4.7-.02,1.1-.05,1.54.27,1.52,1.43-.02,1.05-.41,1.27-1.39,1.31-3.39.15-3.39.2-3.39,3.68,0,5.72.02,11.44-.03,17.16,0,.9.66,2.23-1.34,2.24-1.89,0-1.47-1.15-1.48-2.17-.01-6.19-.1-12.38.04-18.57.05-2-.54-2.6-2.46-2.42-.97.09-2.52.68-2.35-1.46.08-.92.34-1.23,1.24-1.21,1.64.05,3.29,0,4.94,0v.02Z"/>
  <path class="cls-1" d="M108.86,199c-3.27-.02-5.55-2.39-5.48-5.7.06-3.11,2.45-5.42,5.59-5.38,3.16.03,5.47,2.35,5.49,5.49.02,3.29-2.3,5.61-5.59,5.59h0Z"/>
  <path class="cls-1" d="M294.79,36.26v-11.06c0-.97-.33-2.03,1.39-2.06,1.83-.03,1.52,1.09,1.52,2.16v21.66c0,.99.28,2.01-1.41,2.05-1.84.05-1.52-1.1-1.52-2.15v-10.59h.02Z"/>
  <path class="cls-1" d="M361.44,130.4c3.72,2.5,7.82,3.26,12.13,2.29,6.68-1.49,11.17-7.82,10.92-15.08-.22-6.56-5.53-12.26-12.41-13.33-6.54-1.02-13.26,2.9-15.53,9.19-2.24,6.19-.59,11.52,3.9,16.12l.99.81h0Z"/>
  <path class="cls-1" d="M361.44,130.4c3.72,2.5,7.82,3.26,12.13,2.29,6.68-1.49,11.17-7.82,10.92-15.08-.22-6.56-5.53-12.26-12.41-13.33-6.54-1.02-13.26,2.9-15.53,9.19-2.24,6.19-.59,11.52,3.9,16.12l.99.81h0Z"/>
  <line class="cls-1" x1="361.44" y1="130.4" x2="360.45" y2="129.59"/>
</svg>